<?xml version="1.0" encoding="utf-8"?>
<!-- Generator: Adobe Illustrator 22.0.1, SVG Export Plug-In . SVG Version: 6.00 Build 0)  -->
<svg version="1.1" id="Layer_1" xmlns="http://www.w3.org/2000/svg" xmlns:xlink="http://www.w3.org/1999/xlink" x="0px" y="0px"
	 viewBox="0 0 612 792" style="enable-background:new 0 0 612 792;" xml:space="preserve">
<style type="text/css">
	.st0{fill:#324057;}
	.st1{fill:#FFFFFF;}
	.st2{fill:none;stroke:#324057;stroke-width:2.8354;stroke-miterlimit:10;}
</style>
<polygon class="st0" points="301,167.6 104.4,292.4 104.4,295.2 104.4,479.5 300,595.8 302.8,595.8 302.8,167.6 "/>
<polygon class="st1" points="132.7,467 278.1,541.9 278.1,356.8 194.4,356.8 190,330.4 278.1,281.9 278.1,215.8 132.7,299.5 
	134.9,398.7 231.9,398.7 231.9,456 148.1,407.5 "/>
<polygon class="st0" points="470.5,467 325.1,541.9 325.1,356.8 408.8,356.8 413.2,330.4 325.1,281.9 325.1,215.8 470.5,299.5 
	468.3,398.7 371.3,398.7 371.3,456 455.1,407.5 "/>
<polygon class="st2" points="304.7,167.6 501.3,292.4 501.3,295.2 501.3,479.5 305.7,595.8 302.8,595.8 302.8,167.6 "/>
</svg>
